%TF.GenerationSoftware,Altium Limited,Altium Designer,21.4.1 (30)*%
G04 Layer_Color=65535*
%FSLAX45Y45*%
%MOMM*%
%TF.SameCoordinates,540651E0-2A7D-4A38-944B-493F13BEE0D5*%
%TF.FilePolarity,Positive*%
%TF.FileFunction,Legend,Top*%
%TF.Part,Single*%
G01*
G75*
%TA.AperFunction,NonConductor*%
%ADD21C,0.18000*%
%ADD24C,0.25000*%
%ADD25C,0.20000*%
%ADD26C,0.40000*%
D21*
X11107200Y5733000D02*
X11053884D01*
X11027226Y5759658D01*
X11053884Y5786316D01*
X11107200D01*
X11067213D01*
Y5733000D01*
X11107200Y5812974D02*
X11027226D01*
X11053884Y5839632D01*
X11027226Y5866290D01*
X11107200D01*
X11040555Y5946264D02*
X11027226Y5932936D01*
Y5906277D01*
X11040555Y5892948D01*
X11053884D01*
X11067213Y5906277D01*
Y5932936D01*
X11080542Y5946264D01*
X11093871D01*
X11107200Y5932936D01*
Y5906277D01*
X11093871Y5892948D01*
X11107200Y5972923D02*
Y5999581D01*
Y5986252D01*
X11027226D01*
X11040555Y5972923D01*
X11107200Y6039568D02*
Y6066226D01*
Y6052897D01*
X11027226D01*
X11040555Y6039568D01*
X11107200Y6106213D02*
Y6132871D01*
Y6119542D01*
X11027226D01*
X11040555Y6106213D01*
X11027226Y6172858D02*
Y6226174D01*
X11040555D01*
X11093871Y6172858D01*
X11107200D01*
X11905200Y6244774D02*
Y6191458D01*
X11931858Y6164800D01*
X11958516Y6191458D01*
Y6244774D01*
X11998503Y6164800D02*
X12025161D01*
X12038490Y6178129D01*
Y6204787D01*
X12025161Y6218116D01*
X11998503D01*
X11985174Y6204787D01*
Y6178129D01*
X11998503Y6164800D01*
X12065148Y6218116D02*
Y6178129D01*
X12078477Y6164800D01*
X12118464D01*
Y6218116D01*
X12158452Y6231445D02*
Y6218116D01*
X12145123D01*
X12171781D01*
X12158452D01*
Y6178129D01*
X12171781Y6164800D01*
X12211768Y6204787D02*
X12265084D01*
X12238426Y6231445D02*
Y6178129D01*
X11905200Y5558974D02*
Y5505658D01*
X11931858Y5479000D01*
X11958516Y5505658D01*
Y5558974D01*
X11998503Y5479000D02*
X12025161D01*
X12038490Y5492329D01*
Y5518987D01*
X12025161Y5532316D01*
X11998503D01*
X11985174Y5518987D01*
Y5492329D01*
X11998503Y5479000D01*
X12065148Y5532316D02*
Y5492329D01*
X12078477Y5479000D01*
X12118464D01*
Y5532316D01*
X12158452Y5545645D02*
Y5532316D01*
X12145123D01*
X12171781D01*
X12158452D01*
Y5492329D01*
X12171781Y5479000D01*
X12211768Y5518987D02*
X12265084D01*
X9949400Y5533574D02*
Y5480258D01*
X9976058Y5453600D01*
X10002716Y5480258D01*
Y5533574D01*
X10029374Y5453600D02*
X10056032D01*
X10042703D01*
Y5506916D01*
X10029374D01*
X10096019Y5453600D02*
Y5506916D01*
X10136007D01*
X10149336Y5493587D01*
Y5453600D01*
X10175994Y5493587D02*
X10229310D01*
X9949400Y6219374D02*
Y6166058D01*
X9976058Y6139400D01*
X10002716Y6166058D01*
Y6219374D01*
X10029374Y6139400D02*
X10056032D01*
X10042703D01*
Y6192716D01*
X10029374D01*
X10096019Y6139400D02*
Y6192716D01*
X10136007D01*
X10149336Y6179387D01*
Y6139400D01*
X10175994Y6179387D02*
X10229310D01*
X10202652Y6206045D02*
Y6152729D01*
X11007755Y6463484D02*
Y6380177D01*
X11024416Y6363516D01*
X11057739D01*
X11074400Y6380177D01*
Y6463484D01*
X11107723Y6363516D02*
X11141045D01*
X11124384D01*
Y6463484D01*
X11107723Y6446823D01*
X11261755Y5322116D02*
Y5422084D01*
X11311739D01*
X11328400Y5405423D01*
Y5372100D01*
X11311739Y5355439D01*
X11261755D01*
X11295077D02*
X11328400Y5322116D01*
X11361723D02*
X11395045D01*
X11378384D01*
Y5422084D01*
X11361723Y5405423D01*
X10753755Y5422084D02*
Y5322116D01*
X10803739D01*
X10820400Y5338777D01*
Y5405423D01*
X10803739Y5422084D01*
X10753755D01*
X10853723Y5322116D02*
X10887045D01*
X10870384D01*
Y5422084D01*
X10853723Y5405423D01*
X11705439Y5430823D02*
X11688777Y5447484D01*
X11655455D01*
X11638794Y5430823D01*
Y5364177D01*
X11655455Y5347516D01*
X11688777D01*
X11705439Y5364177D01*
X11788745Y5347516D02*
Y5447484D01*
X11738761Y5397500D01*
X11805406D01*
X11680039Y6421423D02*
X11663377Y6438084D01*
X11630055D01*
X11613394Y6421423D01*
Y6354777D01*
X11630055Y6338116D01*
X11663377D01*
X11680039Y6354777D01*
X11713361Y6421423D02*
X11730023Y6438084D01*
X11763345D01*
X11780006Y6421423D01*
Y6404761D01*
X11763345Y6388100D01*
X11746684D01*
X11763345D01*
X11780006Y6371439D01*
Y6354777D01*
X11763345Y6338116D01*
X11730023D01*
X11713361Y6354777D01*
X10435439Y6408723D02*
X10418777Y6425384D01*
X10385455D01*
X10368794Y6408723D01*
Y6342077D01*
X10385455Y6325416D01*
X10418777D01*
X10435439Y6342077D01*
X10535406Y6325416D02*
X10468761D01*
X10535406Y6392061D01*
Y6408723D01*
X10518745Y6425384D01*
X10485423D01*
X10468761Y6408723D01*
X10452100Y5430823D02*
X10435439Y5447484D01*
X10402116D01*
X10385455Y5430823D01*
Y5364177D01*
X10402116Y5347516D01*
X10435439D01*
X10452100Y5364177D01*
X10485423Y5347516D02*
X10518745D01*
X10502084D01*
Y5447484D01*
X10485423Y5430823D01*
D24*
X10757400Y6331700D02*
G03*
X10757400Y6331700I-12500J0D01*
G01*
D25*
X10899150Y5656450D02*
Y6306950D01*
Y5656450D02*
X11249650D01*
Y6306950D01*
X10899150D02*
X11249650D01*
X11574400Y5901504D02*
Y6282124D01*
X11844400Y5901504D02*
Y6282124D01*
X11619400Y5534800D02*
Y5714800D01*
X11799400Y5534800D02*
Y5714800D01*
X10317100Y5888804D02*
Y6269424D01*
X10587100Y5888804D02*
Y6269424D01*
X10362100Y5534800D02*
Y5714800D01*
X10542100Y5534800D02*
Y5714800D01*
X11963400Y5588000D02*
X12217400D01*
X11963400D02*
Y6096000D01*
X12217400D01*
Y5588000D02*
Y6096000D01*
X9931400D02*
X10185400D01*
Y5588000D02*
Y6096000D01*
X9931400Y5588000D02*
X10185400D01*
X9931400D02*
Y6096000D01*
D26*
X11173600Y5486400D02*
Y5566400D01*
X10973900Y5484500D02*
Y5564500D01*
%TF.MD5,6cce2377102114701457934b4968b893*%
M02*
