%TF.GenerationSoftware,Altium Limited,Altium Designer,21.4.1 (30)*%
G04 Layer_Physical_Order=1*
G04 Layer_Color=255*
%FSLAX45Y45*%
%MOMM*%
%TF.SameCoordinates,540651E0-2A7D-4A38-944B-493F13BEE0D5*%
%TF.FilePolarity,Positive*%
%TF.FileFunction,Copper,L1,Top,Signal*%
%TF.Part,Single*%
G01*
G75*
%TA.AperFunction,SMDPad,CuDef*%
G04:AMPARAMS|DCode=10|XSize=1.00429mm|YSize=3.18213mm|CornerRadius=0.43687mm|HoleSize=0mm|Usage=FLASHONLY|Rotation=0.000|XOffset=0mm|YOffset=0mm|HoleType=Round|Shape=RoundedRectangle|*
%AMROUNDEDRECTD10*
21,1,1.00429,2.30840,0,0,0.0*
21,1,0.13056,3.18213,0,0,0.0*
1,1,0.87373,0.06528,-1.15420*
1,1,0.87373,-0.06528,-1.15420*
1,1,0.87373,-0.06528,1.15420*
1,1,0.87373,0.06528,1.15420*
%
%ADD10ROUNDEDRECTD10*%
G04:AMPARAMS|DCode=11|XSize=1.00429mm|YSize=0.87213mm|CornerRadius=0.43606mm|HoleSize=0mm|Usage=FLASHONLY|Rotation=0.000|XOffset=0mm|YOffset=0mm|HoleType=Round|Shape=RoundedRectangle|*
%AMROUNDEDRECTD11*
21,1,1.00429,0.00000,0,0,0.0*
21,1,0.13216,0.87213,0,0,0.0*
1,1,0.87213,0.06608,0.00000*
1,1,0.87213,-0.06608,0.00000*
1,1,0.87213,-0.06608,0.00000*
1,1,0.87213,0.06608,0.00000*
%
%ADD11ROUNDEDRECTD11*%
%ADD12R,1.00429X0.87213*%
%ADD13R,1.80620X1.60391*%
%ADD14R,0.90000X0.75000*%
%ADD15R,0.80000X1.00000*%
%ADD16R,0.80000X0.80000*%
%TA.AperFunction,Conductor*%
%ADD17C,0.50000*%
%TA.AperFunction,ComponentPad*%
%ADD18R,1.50000X1.50000*%
%ADD19C,1.50000*%
%TA.AperFunction,ViaPad*%
%ADD20C,0.60000*%
G36*
X12255500Y5334000D02*
X9842500D01*
Y6451600D01*
X12255500D01*
Y5334000D01*
D02*
G37*
%LPC*%
G36*
X11819710Y6302124D02*
X11599090D01*
Y6247346D01*
X11550802D01*
X11540859Y6251465D01*
X11520968D01*
X11502590Y6243853D01*
X11488525Y6229788D01*
X11480913Y6211410D01*
Y6191519D01*
X11488525Y6173142D01*
X11502590Y6159077D01*
X11520968Y6151465D01*
X11540859D01*
X11550802Y6155583D01*
X11599090D01*
Y6101733D01*
X11819710D01*
Y6302124D01*
D02*
G37*
G36*
X10562410Y6289424D02*
X10341790D01*
Y6103692D01*
X9944100D01*
X9936296Y6102140D01*
X9929681Y6097719D01*
X9925260Y6091104D01*
X9923708Y6083300D01*
Y5842000D01*
X9925260Y5834196D01*
X9929681Y5827581D01*
X9936296Y5823160D01*
X9944100Y5821608D01*
X10040147D01*
X10041819Y5808908D01*
X10021732Y5803526D01*
X10000069Y5791019D01*
X9982381Y5773331D01*
X9969874Y5751668D01*
X9963400Y5727507D01*
Y5702493D01*
X9969874Y5678332D01*
X9982381Y5656669D01*
X10000069Y5638981D01*
X10021732Y5626474D01*
X10045893Y5620000D01*
X10070907D01*
X10095068Y5626474D01*
X10116731Y5638981D01*
X10134419Y5656669D01*
X10146926Y5678332D01*
X10153400Y5702493D01*
Y5727507D01*
X10146926Y5751668D01*
X10134419Y5773331D01*
X10116731Y5791019D01*
X10095068Y5803526D01*
X10074981Y5808908D01*
X10076653Y5821608D01*
X10177708D01*
Y5638800D01*
X10179260Y5630996D01*
X10183681Y5624381D01*
X10190296Y5619960D01*
X10198100Y5618408D01*
X10546008D01*
Y5473700D01*
X10547560Y5465896D01*
X10551981Y5459281D01*
X10558596Y5454860D01*
X10566400Y5453308D01*
X10795000D01*
X10802804Y5454860D01*
X10809419Y5459281D01*
X10811853Y5462923D01*
X10823900Y5464500D01*
X10826511Y5464500D01*
X10943900D01*
Y5478618D01*
X11204900D01*
Y5454500D01*
X11324900D01*
Y5594500D01*
X11204900D01*
Y5570382D01*
X10943900D01*
Y5584500D01*
X10828092D01*
X10823900Y5584500D01*
X10815392Y5593676D01*
Y5747829D01*
X10816361Y5752700D01*
X10815392Y5757570D01*
Y5803900D01*
X10813840Y5811704D01*
X10809419Y5818319D01*
X10802804Y5822740D01*
X10795000Y5824292D01*
X10599492D01*
Y6083300D01*
X10597940Y6091104D01*
X10593519Y6097719D01*
X10586904Y6102140D01*
X10579100Y6103692D01*
X10562410D01*
Y6139018D01*
X10622712D01*
X10632654Y6134900D01*
X10652546D01*
X10670923Y6142512D01*
X10675504Y6147094D01*
X10815115D01*
Y6175205D01*
X10830530D01*
X10835854Y6173000D01*
X10855746D01*
X10874123Y6180612D01*
X10888188Y6194677D01*
X10895800Y6213054D01*
Y6232946D01*
X10888188Y6251323D01*
X10874123Y6265388D01*
X10855746Y6273000D01*
X10835854D01*
X10827815Y6269670D01*
X10815114Y6274307D01*
Y6274306D01*
X10674686D01*
Y6239476D01*
X10661985Y6230990D01*
X10652546Y6234900D01*
X10632654D01*
X10622712Y6230782D01*
X10562410D01*
Y6289424D01*
D02*
G37*
G36*
X12102907Y5810000D02*
X12077893D01*
X12053732Y5803526D01*
X12032069Y5791019D01*
X12014381Y5773331D01*
X12001874Y5751668D01*
X11995400Y5727507D01*
Y5702493D01*
X12001874Y5678332D01*
X12014381Y5656669D01*
X12032069Y5638981D01*
X12053732Y5626474D01*
X12077893Y5620000D01*
X12102907D01*
X12127068Y5626474D01*
X12148731Y5638981D01*
X12166419Y5656669D01*
X12178926Y5678332D01*
X12185400Y5702493D01*
Y5727507D01*
X12178926Y5751668D01*
X12166419Y5773331D01*
X12148731Y5791019D01*
X12127068Y5803526D01*
X12102907Y5810000D01*
D02*
G37*
G36*
X10517100Y5604800D02*
X10387100D01*
Y5594948D01*
X10339355D01*
X10325148Y5600833D01*
X10305257D01*
X10286879Y5593221D01*
X10272814Y5579156D01*
X10265202Y5560779D01*
Y5540888D01*
X10272814Y5522510D01*
X10286879Y5508445D01*
X10305257Y5500833D01*
X10325148D01*
X10330826Y5503185D01*
X10387100D01*
Y5489800D01*
X10517100D01*
Y5604800D01*
D02*
G37*
G36*
X11774400D02*
X11644400D01*
Y5489800D01*
X11774400D01*
Y5502278D01*
X11837509D01*
X11838056Y5502051D01*
X11857947D01*
X11876324Y5509663D01*
X11890390Y5523728D01*
X11898002Y5542105D01*
Y5561996D01*
X11890390Y5580374D01*
X11876324Y5594439D01*
X11857947Y5602051D01*
X11838056D01*
X11819679Y5594439D01*
X11819281Y5594041D01*
X11774400D01*
Y5604800D01*
D02*
G37*
G36*
X11474900Y5594500D02*
X11354900D01*
Y5454500D01*
X11474900D01*
Y5478618D01*
X11499012D01*
X11508954Y5474500D01*
X11528846D01*
X11547223Y5482112D01*
X11561288Y5496177D01*
X11568900Y5514554D01*
Y5534446D01*
X11561288Y5552823D01*
X11547223Y5566888D01*
X11528846Y5574500D01*
X11508954D01*
X11499012Y5570382D01*
X11474900D01*
Y5594500D01*
D02*
G37*
%LPD*%
G36*
X10579100Y5803900D02*
X10795000D01*
Y5473700D01*
X10566400D01*
Y5638800D01*
X10198100D01*
Y5842000D01*
X9944100D01*
Y6083300D01*
X10579100D01*
Y5803900D01*
D02*
G37*
D10*
X11403900Y5981700D02*
D03*
D11*
X10744900Y5752700D02*
D03*
Y5981700D02*
D03*
D12*
Y6210700D02*
D03*
D13*
X11709400Y6201929D02*
D03*
Y5981700D02*
D03*
X10452100Y6189229D02*
D03*
Y5969000D02*
D03*
D14*
X11709400Y5547300D02*
D03*
Y5702300D02*
D03*
X10452100Y5547300D02*
D03*
Y5702300D02*
D03*
D15*
X11264900Y5524500D02*
D03*
X11414900D02*
D03*
D16*
X10733900D02*
D03*
X10883900D02*
D03*
D17*
X11729400Y5548159D02*
X11841404D01*
X11845296Y5552051D01*
X11848002D01*
X10316969Y5549067D02*
X10450333D01*
X10315202Y5550833D02*
X10316969Y5549067D01*
X10450333D02*
X10452100Y5547300D01*
X11709400D02*
X11728541D01*
X11729400Y5548159D01*
X11708936Y6201465D02*
X11709400Y6201929D01*
X11530913Y6201465D02*
X11708936D01*
X10452100Y6189229D02*
X10456429Y6184900D01*
X10642600D01*
X10755287Y6221087D02*
X10843887D01*
X10845800Y6223000D01*
X10744900Y6210700D02*
X10755287Y6221087D01*
X11414900Y5524500D02*
X11518900D01*
X10883900D02*
X11264900D01*
D18*
X12090400Y5969000D02*
D03*
X10058400D02*
D03*
D19*
X12090400Y5715000D02*
D03*
X10058400D02*
D03*
D20*
X11848002Y5552051D02*
D03*
X10315202Y5550833D02*
D03*
X11530913Y6201465D02*
D03*
X10642600Y6184900D02*
D03*
X10845800Y6223000D02*
D03*
X11518900Y5524500D02*
D03*
%TF.MD5,c69d5a3beeafb4513d91f0af14c09351*%
M02*
